<svg width="267" height="52" viewBox="0 0 267 52" fill="none" xmlns="http://www.w3.org/2000/svg">
<path d="M31.4368 31.0336L21.2923 28.3796L24.0091 38.283L18.9967 39.5934L16.278 29.6935L3.67009 42L0 38.4171L12.6079 26.1089L2.46517 23.4566L3.80754 18.5616L13.9521 21.2156L11.2334 11.3122L16.2477 10L18.9663 19.9034L26.5725 12.4763L30.2426 16.0591L22.6364 23.4862L32.7792 26.1403L31.4368 31.0336Z" fill="#E7F3F3"/>
<path d="M42.2898 12.0938V7.18182H71.5582V12.0938H59.7585V45H54.071V12.0938H42.2898ZM74.0809 12.0938V7.18182H103.349V12.0938H91.5496V45H85.8621V12.0938H74.0809ZM111.042 7.18182L121.568 37.983H121.993L132.518 7.18182H138.686L125.077 45H118.484L104.875 7.18182H111.042Z" fill="#E7F3F3"/>
</svg>
